<svg width="700" height="700" viewBox="0 0 700 700" fill="none" xmlns="http://www.w3.org/2000/svg">
<rect width="700" height="700" fill="#FF1236"/>
<circle cx="350" cy="350" r="244" fill="#FF1236"/>
<circle cx="350" cy="350" r="285" fill="#FF1236"/>
<path d="M350 65C507.401 65 635 192.599 635 350C635 507.401 507.401 635 350 635C192.599 635 65 507.401 65 350C65 192.599 192.599 65 350 65ZM350 135C231.259 135 135 231.259 135 350C135 468.741 231.259 565 350 565C468.741 565 565 468.741 565 350C565 231.259 468.741 135 350 135Z" fill="white" fill-opacity="0.5"/>
<mask id="path-4-outside-1_5_2" maskUnits="userSpaceOnUse" x="45" y="44" width="579" height="611" fill="black">
<rect fill="white" x="45" y="44" width="579" height="611"/>
<path d="M350 65C369.33 65 385 80.67 385 100C385 119.33 369.33 135 350 135C349.833 135 349.666 134.995 349.5 134.993V135.001C230.989 135.271 135 231.426 135 350C135 468.741 231.259 565 350 565C427.978 565 496.257 523.486 533.949 461.354C534.42 460.321 534.944 459.3 535.524 458.297C545.203 441.564 566.613 435.846 583.346 445.524C599.909 455.105 605.678 476.181 596.403 492.837L596.606 492.954C547.264 577.89 455.302 635 350 635C192.599 635 65.0002 507.401 65 350C65.0002 192.766 192.329 65.2709 349.5 65.001V65.0059C349.666 65.0035 349.833 65 350 65Z"/>
</mask>
<path d="M350 65C369.33 65 385 80.67 385 100C385 119.33 369.33 135 350 135C349.833 135 349.666 134.995 349.5 134.993V135.001C230.989 135.271 135 231.426 135 350C135 468.741 231.259 565 350 565C427.978 565 496.257 523.486 533.949 461.354C534.42 460.321 534.944 459.3 535.524 458.297C545.203 441.564 566.613 435.846 583.346 445.524C599.909 455.105 605.678 476.181 596.403 492.837L596.606 492.954C547.264 577.89 455.302 635 350 635C192.599 635 65.0002 507.401 65 350C65.0002 192.766 192.329 65.2709 349.5 65.001V65.0059C349.666 65.0035 349.833 65 350 65Z" fill="white"/>
<path d="M349.5 134.993L349.78 114.995L329.5 114.711V134.993H349.5ZM349.5 135.001L349.546 155.001L369.5 154.956V135.001H349.5ZM135 350L115 350L115 350L135 350ZM533.949 461.354L551.049 471.728L551.662 470.718L552.151 469.642L533.949 461.354ZM535.524 458.297L518.212 448.283L518.212 448.283L535.524 458.297ZM583.346 445.524L593.36 428.212L593.36 428.212L583.346 445.524ZM596.403 492.837L578.93 483.107L569.347 500.317L586.409 510.161L596.403 492.837ZM596.606 492.954L613.9 503.001L623.977 485.655L606.601 475.63L596.606 492.954ZM65 350L45 350L45 350L65 350ZM349.5 65.001H369.5V44.9666L349.466 45.001L349.5 65.001ZM349.5 65.0059H329.5V85.2879L349.78 85.0039L349.5 65.0059ZM350 65V85C358.284 85 365 91.7157 365 100H385H405C405 69.6243 380.376 45 350 45V65ZM385 100H365C365 108.284 358.284 115 350 115V135V155C380.376 155 405 130.376 405 100H385ZM350 135V115C350.047 115 350.081 115 350.095 115C350.108 115.001 350.11 115.001 350.09 115C350.08 115 350.068 115 350.05 115C350.038 114.999 350.006 114.999 349.985 114.998C349.936 114.998 349.863 114.996 349.78 114.995L349.5 134.993L349.22 154.991C349.219 154.991 349.222 154.991 349.23 154.991C349.238 154.991 349.248 154.992 349.265 154.992C349.286 154.992 349.355 154.994 349.41 154.995C349.53 154.997 349.746 155 350 155V135ZM349.5 134.993H329.5V135.001H349.5H369.5V134.993H349.5ZM349.5 135.001L349.454 115.001C219.918 115.296 115 220.395 115 350L135 350L155 350C155 242.456 242.06 155.246 349.546 155.001L349.5 135.001ZM135 350L115 350C115 479.787 220.213 585 350 585V565V545C242.305 545 155 457.695 155 350L135 350ZM350 565V585C435.256 585 509.882 539.586 551.049 471.728L533.949 461.354L516.85 450.981C482.632 507.385 420.7 545 350 545V565ZM533.949 461.354L552.151 469.642C552.358 469.187 552.587 468.743 552.837 468.311L535.524 458.297L518.212 448.283C517.301 449.857 516.481 451.454 515.747 453.067L533.949 461.354ZM535.524 458.297L552.837 468.311C556.985 461.14 566.161 458.689 573.332 462.837L583.346 445.524L593.36 428.212C567.066 413.003 533.421 421.989 518.212 448.283L535.524 458.297ZM583.346 445.524L573.332 462.837C580.427 466.941 582.902 475.973 578.93 483.107L596.403 492.837L613.877 502.567C628.453 476.39 619.392 443.27 593.36 428.212L583.346 445.524ZM596.403 492.837L586.409 510.161L586.612 510.278L596.606 492.954L606.601 475.63L606.398 475.513L596.403 492.837ZM596.606 492.954L579.313 482.908C533.403 561.935 447.887 615 350 615V635V655C462.717 655 561.126 593.844 613.9 503.001L596.606 492.954ZM350 635V615C203.645 615 85.0002 496.355 85 350L65 350L45 350C45.0002 518.447 181.553 655 350 655V635ZM65 350L85 350C85.0002 203.8 203.394 85.2519 349.534 85.0009L349.5 65.001L349.466 45.001C181.264 45.2898 45.0002 181.731 45 350L65 350ZM349.5 65.001H329.5V65.0059H349.5H369.5V65.001H349.5ZM349.5 65.0059L349.78 85.0039C349.843 85.003 349.902 85.0021 349.941 85.0015C349.986 85.0007 350.01 85.0004 350.031 85.0001C350.074 84.9995 350.052 85 350 85V65V45C349.781 45 349.592 45.0023 349.468 45.004C348.286 45.0207 350.308 44.9926 349.22 45.0078L349.5 65.0059Z" fill="#FF1236" mask="url(#path-4-outside-1_5_2)"/>
<path d="M348.753 158.001C368.083 157.876 383.854 173.443 383.98 192.773L384.877 331.066L469.092 379.687C485.832 389.352 491.567 410.757 481.903 427.497C472.238 444.237 450.832 449.973 434.092 440.309L331.908 381.313C318.753 373.717 312.395 358.872 314.965 344.738L313.982 193.228C313.856 173.898 329.424 158.127 348.753 158.001Z" fill="white" fill-opacity="0.5"/>
</svg>
