<svg width="180" height="180" viewBox="0 0 180 180" fill="none" xmlns="http://www.w3.org/2000/svg">
<path d="M3 122V36.973L18.4746 34V62.5405C47.6384 56 53.1933 74.4324 52.995 83.3514V122H36.9251V85.1351C36.9251 72.2919 22.0457 74.4324 18.4746 77.4054V122H3Z" fill="#CB2214"/>
<path d="M67 36.9801V107.311C67 114.464 71.2684 122.808 90.1707 124L92.0001 109.695C89.3579 109.298 82.8538 107.311 82.8537 104.331V34L67 36.9801Z" fill="#CB2214"/>
<path d="M104.4 64.0001H120V128.137C120 136.529 111 150.915 87 144.321L88.8 131.134C93 132.333 104.4 131.733 104.4 125.739V64.0001Z" fill="#CB2214"/>
<path d="M131.994 108.526L129 121.65C142.171 125.826 170.909 128.809 175.699 113.299C180.488 97.7882 170.909 90.6297 165.521 89.4366C159.135 88.6412 146.562 84.6642 146.961 81.0848C147.36 77.5054 150.553 75.1193 170.909 78.1021L173.903 66.1711C161.929 61.9951 137.981 59.8799 133.191 73.3296C126.605 91.8228 136.843 98.1581 146.961 100.175C173.903 105.543 155.942 115.088 131.994 108.526Z" fill="#CB2214"/>
<circle cx="112" cy="45" r="9" fill="#CB2214"/>
</svg>
