<svg width="54" height="50" viewBox="0 0 54 50" fill="none" xmlns="http://www.w3.org/2000/svg">
<g clip-path="url(#clip0_156_2)">
<path d="M46.9005 50.0126C50.8016 47.9383 52.2826 43.0943 50.2083 39.1932L37.5326 15.3537C36.2362 12.9155 37.1618 9.88797 39.6 8.59156C42.0382 7.29515 45.0657 8.22074 46.3621 10.6589C47.3992 12.6095 49.8212 13.35 51.7717 12.3128C53.7223 11.2757 54.4628 8.85372 53.4257 6.90316C50.055 0.563864 42.1835 -1.84269 35.8442 1.52798C29.6369 4.82846 27.2003 12.4443 30.266 18.7115L21.6507 23.2923L25.4065 30.3559L34.0151 25.7786L46.9005 50.0126Z" fill="white"/>
<path d="M6.99414 0C3.09303 2.07426 1.61207 6.91825 3.68633 10.8194L16.3621 34.6589C17.6585 37.0971 16.7329 40.1246 14.2947 41.421C11.8565 42.7174 8.82899 41.7918 7.53258 39.3537C6.49546 37.4031 4.07346 36.6626 2.12291 37.6997C0.172354 38.7369 -0.568125 41.1589 0.469004 43.1094C3.83967 49.4487 11.7112 51.8553 18.0505 48.4846C24.3898 45.1139 26.7963 37.2425 23.4256 30.9032L6.99414 0Z" fill="#F0EBD9"/>
<path d="M14.627 41.2256C15.1805 41.6893 15.6953 42.1792 16.1778 42.708C17.3566 44.0001 18.4179 45.578 19.46 47.6133C19.0142 47.9282 18.5454 48.2214 18.0508 48.4844C15.5199 49.83 12.7449 50.2536 10.1094 49.875C10.8754 48.1754 11.45 46.5121 11.8233 44.8271C12.0334 43.8786 12.1758 42.9378 12.2588 41.9961C12.9501 41.9534 13.6436 41.7672 14.2949 41.4209C14.4093 41.3601 14.5194 41.2938 14.627 41.2256ZM2.12307 37.7002C3.47075 36.9836 5.04313 37.1158 6.22854 37.9092C6.44839 39.9541 6.35935 41.7529 5.96585 43.5293C5.67455 44.8441 5.20277 46.1988 4.51663 47.6768C2.87452 46.5353 1.47221 44.9966 0.468775 43.1094C-0.568141 41.1589 0.172757 38.7373 2.12307 37.7002ZM12.8428 28.04C16.0985 28.7652 19.5855 30.2775 24.3018 32.9561C25.3839 36.2435 25.0773 39.7523 23.6143 42.7373C22.7036 41.2274 21.7168 39.8779 20.6104 38.665C19.3974 37.3355 18.0738 36.2099 16.6162 35.2227C16.5433 35.0325 16.4604 34.8436 16.3623 34.6592L12.8428 28.04ZM5.98635 15.1455C6.48447 15.1503 6.9821 15.1697 7.48245 15.208C10.0221 15.4023 12.7533 16.035 16.1436 17.209L19.7432 23.9785C17.7865 23.1733 15.909 22.5669 14.0283 22.1562C12.4709 21.8162 10.9385 21.6181 9.38674 21.54L5.98635 15.1455ZM12.2364 9.85938C10.7697 9.54568 9.34805 9.33331 7.93948 9.22559C6.28275 9.09891 4.67404 9.11867 3.06057 9.27246C2.03507 5.71598 3.59569 1.80709 6.99417 0L12.2364 9.85938Z" fill="#FF193F"/>
<path d="M6.42683 3.50629C22.9473 35.0063 24.9473 34.0063 20.9473 42.5063" stroke="white" stroke-opacity="0.3" stroke-width="2" stroke-linecap="round"/>
<path d="M4.94733 39.5063C6.59323 42.1613 7.63475 43.6331 10.9473 44.0063" stroke="white" stroke-opacity="0.3" stroke-width="2" stroke-linecap="round"/>
</g>
<defs>
<clipPath id="clip0_156_2">
<rect width="54" height="50" fill="white"/>
</clipPath>
</defs>
</svg>
