<svg width="64" height="64" viewBox="0 0 64 64" fill="none" xmlns="http://www.w3.org/2000/svg">
<path d="M51.9532 57.0063C55.8543 54.932 57.3353 50.0881 55.261 46.1869L42.5853 22.3474C41.2889 19.9092 42.2145 16.8817 44.6526 15.5853C47.0908 14.2889 50.1183 15.2144 51.4147 17.6526C52.4519 19.6032 54.8739 20.3437 56.8244 19.3065C58.775 18.2694 59.5155 15.8474 58.4783 13.8969C55.1077 7.55757 47.2362 5.15102 40.8969 8.52168C34.6896 11.8222 32.2529 19.438 35.3186 25.7052L26.7034 30.286L30.4591 37.3496L39.0677 32.7723L51.9532 57.0063Z" fill="white"/>
<path d="M12.0468 6.99371C8.1457 9.06796 6.66475 13.912 8.739 17.8131L21.4147 41.6526C22.7111 44.0908 21.7855 47.1183 19.3474 48.4147C16.9092 49.7111 13.8817 48.7856 12.5853 46.3474C11.5481 44.3968 9.12613 43.6563 7.17558 44.6935C5.22503 45.7306 4.48455 48.1526 5.52168 50.1031C8.89234 56.4424 16.7638 58.849 23.1031 55.4783C29.4424 52.1077 31.849 44.2362 28.4783 37.8969L12.0468 6.99371Z" fill="#F0EBD9"/>
<path fill-rule="evenodd" clip-rule="evenodd" d="M12.0468 6.99371C8.64831 8.80072 7.08652 12.7098 8.11189 16.2662C9.72594 16.1124 11.3351 16.0923 12.9924 16.219C14.401 16.3267 15.8223 16.539 17.2889 16.8526L12.0468 6.99371ZM14.4382 28.5316L11.038 22.1368C11.5364 22.1416 12.0342 22.1632 12.5349 22.2015C15.0744 22.3958 17.8058 23.0266 21.1958 24.2004L24.7965 30.9724C22.8396 30.1671 20.9621 29.5608 19.0813 29.1501C17.5233 28.8099 15.9905 28.6098 14.4382 28.5316ZM17.8948 35.0326L21.4147 41.6526C21.5124 41.8364 21.5975 42.0234 21.6702 42.2128C23.128 43.2001 24.4495 44.3284 25.6627 45.6581C26.7699 46.8716 27.7577 48.2217 28.6688 49.7326C30.1324 46.7472 30.4373 43.2369 29.355 39.9491C24.6381 37.2702 21.1509 35.7577 17.8948 35.0326ZM19.3474 48.4147C19.4631 48.3532 19.5753 48.2878 19.6842 48.2187C20.2368 48.6819 20.7484 49.1739 21.2303 49.702C22.4096 50.9947 23.4738 52.572 24.5163 54.6086C24.0699 54.924 23.5985 55.2149 23.1031 55.4783C20.5729 56.8236 17.7987 57.2486 15.1639 56.8706C15.9301 55.1706 16.5026 53.5062 16.876 51.8208C17.086 50.8728 17.23 49.9326 17.313 48.9914C18.0037 48.9485 18.6965 48.7608 19.3474 48.4147ZM11.283 44.9032C10.0973 44.109 8.5238 43.9766 7.17558 44.6935C5.22503 45.7306 4.48455 48.1526 5.52168 50.1031C6.52563 51.9913 7.92888 53.5306 9.57201 54.6722C10.2582 53.1941 10.7267 51.838 11.018 50.5231C11.4115 48.7468 11.5027 46.948 11.283 44.9032Z" fill="#FF193F"/>
<path d="M11.4795 10.5C28 42 30 41 26 49.5" stroke="white" stroke-opacity="0.3" stroke-width="2" stroke-linecap="round"/>
<path d="M10 46.5C11.6459 49.155 12.6874 50.6268 16 51" stroke="white" stroke-opacity="0.3" stroke-width="2" stroke-linecap="round"/>
</svg>
