<svg xmlns="http://www.w3.org/2000/svg" width="200" height="200" viewBox="156 100 202 185" style="background-color: white;">
    <path fill="#000000ff" fill-rule="evenodd" clip-rule="evenodd" d="M357 200v-92c0-8.284-6.716-15-15-15H172c-8.284 0-15 6.716-15 15v92h200zM157 205v73c0 8.284 6.716 15 15 15h170c8.284 0 15-6.716 15-15v-73H157z M208.737 180.15v-33.125l16.987 21.234 16.987-21.234v33.125h16.987v-57.756h-16.987l-16.987 21.234-16.987-21.234H191.75v57.756h16.987zM322.55 151.272h-16.987v-28.878h-16.986v28.878H271.59L297.069 181l25.481-29.728z M217 241.154a3.846 3.846 0 01-3.845 3.846h-5.31a3.845 3.845 0 01-3.845-3.846v-.309a3.846 3.846 0 013.845-3.846h5.31a3.845 3.845 0 013.845 3.846v.309zM207.859 256.5c0 1.933-1.1 3.5-2.457 3.5h-12.046c-1.357 0-2.457-1.567-2.457-3.5s1.1-3.5 2.457-3.5h12.046c1.357 0 2.457 1.567 2.457 3.5zM328.044 238.021a23.259 23.259 0 00-4.907-8.269c-2.215-2.418-5.049-4.314-8.498-5.689-3.45-1.375-7.479-2.063-12.086-2.063h-19.477l-7.6 52.932h24.403c6.518 0 11.984-1.032 16.402-3.094 4.416-2.062 7.746-5.092 9.986-9.09 2.24-3.996 3.361-8.936 3.361-14.817.001-3.513-.528-6.816-1.584-9.91zm-13.08 16.326c-.586 1.986-1.573 3.826-2.96 5.519-1.389 1.694-3.297 3.049-5.729 4.067s-5.34 1.528-8.727 1.528h-7.103l4.927-34.027h2.176c4.787 0 8.529.872 11.229 2.616 2.698 1.744 4.55 3.863 5.557 6.358a20.46 20.46 0 011.508 7.713c0 2.165-.293 4.24-.878 6.226zM246.148 241.043l1.373-9.61h21.424l1.336-9.434h-36.237c-2.125 0-3.846 1.877-3.846 4s1.721 4 3.846 4H237.933a3.491 3.491 0 010 6.982h-4.806l-.001.019h-8.983c-1.299 0-2.353 1.786-2.353 3.988 0 2.203 1.053 3.989 2.353 3.989h7.826l-.003.023h3.189a3.845 3.845 0 013.845 3.846v.309a3.846 3.846 0 01-3.845 3.846H216.2a3.5 3.5 0 100 7h13.954a3.845 3.845 0 013.845 3.846v.309a3.846 3.846 0 01-3.845 3.846h-7.109c-2.125 0-3.846 1.377-3.846 3.5s1.721 3.5 3.846 3.5h25.636c.273 0 .538-.024.795-.068h17.828l1.336-9.471h-26.045l1.795-13.062h18.751l1.336-9.471h-18.598l.029-.205a6.249 6.249 0 00-.24-1.682z"/>
</svg>