<svg width="700" height="700" viewBox="0 0 700 700" fill="none" xmlns="http://www.w3.org/2000/svg">
<rect width="700" height="700" fill="#FF9812"/>
<circle cx="350" cy="350" r="244" fill="#FF9812"/>
<circle cx="350" cy="350" r="285" fill="#FF9812"/>
<g clip-path="url(#clip0_16_3)">
<path d="M138 102.375C138 82.8082 153.79 67 173.333 67H208.667H491.333H526.667C546.21 67 562 82.8082 562 102.375C562 121.942 546.21 137.75 526.667 137.75V149.91C526.667 196.782 508.006 241.775 474.881 274.939L400.019 350L474.992 425.061C508.117 458.225 526.777 503.218 526.777 550.09V562.25C546.321 562.25 562.11 578.058 562.11 597.625C562.11 617.192 546.321 633 526.777 633H491.444H208.667H173.333C153.79 633 138 617.192 138 597.625C138 578.058 153.79 562.25 173.333 562.25V550.09C173.333 503.218 191.994 458.225 225.119 425.061L299.981 350L225.119 274.939C191.994 241.775 173.333 196.782 173.333 149.91V137.75C153.79 137.75 138 121.942 138 102.375ZM244 137.75V149.91C244 178.1 255.152 205.073 275.027 224.971L350 299.922L424.973 224.861C444.848 204.963 456 177.989 456 149.8V137.639L244 137.75ZM244 562.25H456V550.09C456 521.9 444.848 494.927 424.973 475.029L350 400.078L275.027 475.139C255.152 495.038 244 522.011 244 550.2V562.361V562.25Z" fill="white" fill-opacity="0.5"/>
<path d="M173 102H527" stroke="white" stroke-width="70" stroke-linecap="round"/>
</g>
<rect x="146" y="137" width="408" height="20" fill="#FF9812"/>
<rect x="295" y="137" width="110" height="408" fill="#FF9812"/>
<path d="M350 516L350 123" stroke="white" stroke-width="70" stroke-linecap="round"/>
<defs>
<clipPath id="clip0_16_3">
<rect width="424" height="566" fill="white" transform="translate(138 67)"/>
</clipPath>
</defs>
</svg>
