<svg width="700" height="700" viewBox="0 0 700 700" fill="none" xmlns="http://www.w3.org/2000/svg">
<path fill-rule="evenodd" clip-rule="evenodd" d="M385 100C385 119.33 369.33 135 350 135C349.833 135 349.666 134.999 349.5 134.996V135C230.989 135.27 135 231.425 135 350C135 468.741 231.259 565 350 565C427.965 565 496.237 523.501 533.933 461.388C534.407 460.343 534.937 459.311 535.524 458.297C545.203 441.564 566.613 435.846 583.345 445.524C599.91 455.105 605.68 476.184 596.405 492.839L596.608 492.956C547.265 577.891 455.302 635 350 635C192.599 635 65 507.401 65 350C65 192.765 192.329 65.2702 349.5 65.0003V65.0035C349.666 65.0012 349.833 65 350 65C369.33 65 385 80.67 385 100Z" fill="white"/>
<path d="M350 350L348.981 193" stroke="white" stroke-width="70" stroke-linecap="round"/>
<path d="M349.408 351.002L451.592 409.998" stroke="white" stroke-width="70" stroke-linecap="round"/>
</svg>
