<svg width="64" height="60" viewBox="0 0 64 60" fill="none" xmlns="http://www.w3.org/2000/svg">
<g clip-path="url(#clip0_86_2)">
<path d="M8.40982 0C3.71909 2.48867 1.93837 8.30042 4.43248 12.9809L19.6739 41.5833C21.2327 44.5087 20.1198 48.141 17.1881 49.6964C14.2564 51.2518 10.6161 50.1413 9.05725 47.216C7.8102 44.8758 4.89797 43.9873 2.5526 45.2317C0.20724 46.476 -0.683119 49.3819 0.563935 51.7221C4.61686 59.3279 14.0816 62.2153 21.704 58.1712C29.3265 54.1271 32.2201 44.683 28.1672 37.0772L8.40982 0Z" fill="black"/>
<path d="M55.7573 60C60.3548 57.5113 62.1001 51.6996 59.6556 47.0191L44.7171 18.4167C43.1892 15.4913 44.2801 11.859 47.1535 10.3036C50.027 8.74817 53.5949 9.85868 55.1227 12.784C56.345 15.1242 59.1994 16.0127 61.4981 14.7683C63.7969 13.524 64.6695 10.6181 63.4473 8.27787C59.4749 0.672059 50.1982 -2.21529 42.7273 1.82879C35.4119 5.78866 32.5403 14.926 36.1532 22.4453L26 27.9413L30.4262 36.4161L40.5716 30.9244L55.7573 60Z" fill="black"/>
</g>
<defs>
<clipPath id="clip0_86_2">
<rect width="64" height="60" fill="white"/>
</clipPath>
</defs>
</svg>
