<svg width="64" height="64" viewBox="0 0 64 64" fill="none" xmlns="http://www.w3.org/2000/svg">
<rect width="64" height="64" fill="#1E1E1E"/>
<path d="M12.0468 6.99371C8.1457 9.06797 6.66475 13.912 8.739 17.8131L21.4147 41.6526C22.7111 44.0908 21.7855 47.1183 19.3474 48.4147C16.9092 49.7112 13.8817 48.7856 12.5853 46.3474C11.5481 44.3968 9.12613 43.6563 7.17558 44.6935C5.22503 45.7306 4.48455 48.1526 5.52168 50.1031C8.89234 56.4424 16.7638 58.849 23.1031 55.4783C29.4424 52.1077 31.849 44.2362 28.4783 37.8969L12.0468 6.99371Z" fill="#FFC819"/>
<path d="M51.9532 57.0063C55.8543 54.932 57.3353 50.0881 55.261 46.1869L42.5853 22.3474C41.2889 19.9092 42.2145 16.8817 44.6526 15.5853C47.0908 14.2889 50.1183 15.2144 51.4147 17.6526C52.4519 19.6032 54.8739 20.3437 56.8244 19.3065C58.775 18.2694 59.5155 15.8474 58.4783 13.8969C55.1077 7.55757 47.2362 5.15102 40.8969 8.52168C34.6896 11.8222 32.2529 19.438 35.3186 25.7052L26.7034 30.286L30.4591 37.3496L39.0677 32.7723L51.9532 57.0063Z" fill="white"/>
</svg>
