<svg width="75" height="1" viewBox="0 0 75 1" fill="none" xmlns="http://www.w3.org/2000/svg">
<g clip-path="url(#clip0_94_6)">
<rect width="1" height="1" fill="white"/>
<rect x="2" width="3" height="1" fill="white"/>
<rect x="6" width="3" height="1" fill="white"/>
<rect x="10" width="3" height="1" fill="white"/>
<rect x="16" width="3" height="1" fill="white"/>
<rect x="20" width="3" height="1" fill="white"/>
<rect x="24" width="3" height="1" fill="white"/>
<rect x="30" width="3" height="1" fill="white"/>
<rect x="34" width="1" height="1" fill="white"/>
<rect x="70" width="3" height="1" fill="white"/>
<rect x="74" width="1" height="1" fill="white"/>
<rect x="40" width="3" height="1" fill="white"/>
<rect x="46" width="3" height="1" fill="white"/>
<rect x="52" width="1" height="1" fill="white"/>
<rect x="54" width="1" height="1" fill="white"/>
<rect x="56" width="1" height="1" fill="white"/>
<rect x="58" width="1" height="1" fill="white"/>
<rect x="38" width="1" height="1" fill="white"/>
<rect x="64" width="3" height="1" fill="white"/>
<rect x="62" width="1" height="1" fill="white"/>
</g>
<defs>
<clipPath id="clip0_94_6">
<rect width="75" height="1" fill="white"/>
</clipPath>
</defs>
</svg>
