<svg version="1.1" xmlns="http://www.w3.org/2000/svg" xmlns:xlink="http://www.w3.org/1999/xlink" width="1560" height="804"><defs/><g><path fill="none" stroke="#c99f16" paint-order="fill stroke markers" d=" M 313 412.3335530099122 L 314 414.3406334824915 L 315 416.3425743444201 L 316 418.3385418300251 L 317 420.32770466141784 L 318 422.3092343947028 L 319 424.28230576500727 L 320 426.246097030186 L 321 428.1997903130597 L 322 430.14257194204356 L 323 432.07363279002374 L 324 433.99216861134164 L 325 435.8973803767452 L 326 437.7884746061676 L 327 439.6646636991944 L 328 441.525166263083 L 329 443.3692074381951 L 330 445.1960192207101 L 331 447.00484078248195 L 332 448.79491878790776 L 333 450.56550770767603 L 334 452.31587012926394 L 335 454.04527706405366 L 336 455.75300825094087 L 337 457.43835245630777 L 338 459.10060777023693 L 339 460.7390818988418 L 340 462.3530924525924 L 341 463.9419672305159 L 342 465.5050445001539 L 343 467.0416732731601 L 344 468.55121357642304 L 345 470.033036718601 L 346 471.486525551959 L 347 472.911074729397 L 348 474.3060909565647 L 349 475.6709932389557 L 350 477.0052131238793 L 351 478.30819493720895 L 352 479.5793960148087 L 353 480.8182869285413 L 354 482.0243517067636 L 355 483.19708804921777 L 356 484.3360075362287 L 357 485.4406358321203 L 358 486.51051288276625 L 359 487.54519310719286 L 360 488.5442455831536 L 361 489.5072542265997 L 362 490.43381796496953 L 363 491.32355090422743 L 364 492.17608248958 L 365 492.99105765980414 L 366 493.768136995123 L 367 494.50699685856637 L 368 495.2073295307593 L 369 495.8688433380801 L 370 496.49126277413643 L 371 497.07432861450786 L 372 497.6177980247071 L 373 498.12144466131576 L 374 498.5850587662511 L 375 499.00844725412617 L 376 499.3914337926656 L 377 499.73385887614427 L 378 500.03557989181786 L 379 500.29647117931836 L 380 500.5164240829887 L 381 500.6953469971355 L 382 500.833165404181 L 383 500.92982190569796 L 384 500.985276246315 L 385 500.9995053304819 L 386 500.9725032320886 L 387 500.9042811969332 L 388 500.79486763803834 L 389 500.6443081238177 L 390 500.4526653590981 L 391 500.2200191590036 L 392 499.9464664157148 L 393 499.63212105811516 L 394 499.2771140043419 L 395 498.8815931072615 L 396 498.4457230928922 L 397 497.9696854917988 L 398 497.45367856348963 L 399 496.89791721384523 L 400 496.3026329056146 L 401 495.6680735620162 L 402 494.9945034634833 L 403 494.2822031375962 L 404 493.53146924224916 L 405 492.74261444209816 L 406 491.9159672783433 L 407 491.0518720318981 L 408 490.1506885800035 L 409 489.2127922463475 L 410 488.23857364474975 L 411 487.2284385164804 L 412 486.18280756127695 L 413 485.1021162621312 L 414 483.986814703921 L 415 482.8373673859587 L 416 481.6542530285375 L 417 480.4379643735544 L 418 479.1890079792937 L 419 477.90790400945673 L 420 476.5951860165241 L 421 475.25140071954286 L 422 473.8771077764298 L 423 472.4728795508853 L 424 471.03930087401676 L 425 469.5769688007686 L 426 468.0864923612612 L 427 466.56849230714386 L 428 465.0236008530636 L 429 463.45246141336264 L 430 461.85572833410924 L 431 460.2340666205764 L 432 458.58815166028216 L 433 456.9186689417039 L 434 455.2263137687882 L 435 453.51179097137106 L 436 451.7758146116309 L 437 450.0191076866977 L 438 448.2424018275396 L 439 446.4464369942541 L 440 444.6319611678912 L 441 442.7997300389339 L 442 440.95050669257085 L 443 439.08506129088664 L 444 437.2041707521055 L 445 435.3086184270225 L 446 433.3991937727534 L 447 431.4766920239436 L 448 429.5419138615695 L 449 427.5956650794716 L 450 425.6387562487591 L 451 423.67200238022417 L 452 421.696222584907 L 453 419.7122397329541 L 454 417.7208801109097 L 455 415.7229730775859 L 456 413.71935071865187 L 457 411.71084750008754 L 458 409.6982999206475 L 459 407.6825461634757 L 460 405.6644257470212 L 461 403.6447791753962 L 462 401.62444758832345 L 463 399.6042724108207 L 464 397.5850950027639 L 465 395.56775630847966 L 466 393.5530965065096 L 467 391.5419546596932 L 468 389.53516836571725 L 469 387.53357340827375 L 470 385.5380034089731 L 471 383.5492894801599 L 472 381.5682598787709 L 473 379.5957396613848 L 474 377.6325503406036 L 475 375.679509542909 L 476 373.73743066814023 L 477 371.80712255072865 L 478 369.88938912283675 L 479 367.9850290795369 L 480 366.0948355461717 L 481 364.219595748035 L 482 362.3600906825082 L 483 360.51709479379286 L 484 358.6913756503702 L 485 356.88369362532524 L 486 355.0948015796682 L 487 353.3254445487837 L 488 351.57635943213893 L 489 349.8482746863816 L 490 348.1419100219524 L 491 346.4579761033417 L 492 344.79717425311276 L 493 343.16019615981514 L 494 341.5477235899124 L 495 339.9604281038396 L 496 338.39897077631383 L 497 336.8640019210102 L 498 335.35616081971966 L 499 333.8760754561026 L 500 332.42436225414656 L 501 331.00162582143855 L 502 329.60845869735965 L 503 328.24544110630404 L 504 326.9131407160288 L 505 325.61211240123197 L 506 324.3428980124588 L 507 323.1060261504333 L 508 321.9020119459064 L 509 320.7313568451158 L 510 319.59454840094395 L 511 318.4920600698624 L 512 317.424351014748 L 513 316.39186591365046 L 514 315.3950347745941 L 515 314.43427275648855 L 516 313.5099799962236 L 517 312.6225414420211 L 518 311.7723266931122 L 519 310.95968984580657 L 520 310.1849693460199 L 521 309.44848784831737 L 522 308.7505520815355 L 523 308.09145272103603 L 524 307.4714642676455 L 525 306.8908449333322 L 526 306.3498365336655 L 527 305.8486643871056 L 528 305.38753722116286 L 529 304.9666470854671 L 530 304.58616927178343 L 531 304.24626224100655 L 532 303.94706755716544 L 533 303.6887098284649 L 534 303.47129665538864 L 535 303.29491858588653 L 536 303.15964907766283 L 537 303.06554446758264 L 538 303.01264394820913 L 539 303.00096955148035 L 540 303.0305261395336 L 541 303.10130140268024 L 542 303.21326586453273 L 543 303.3663728942805 L 544 303.56055872611114 L 545 303.7957424857672 L 546 304.07182622422863 L 547 304.38869495850656 L 548 304.7462167195311 L 549 305.1442426071138 L 550 305.58260685196154 L 551 306.06112688471535 L 552 306.5796034119874 L 553 307.13782049936174 L 554 307.73554566132685 L 555 308.37252995810087 L 556 309.0485080993093 L 557 309.7631985544733 L 558 310.5163036702609 L 559 311.30750979445315 L 560 312.13648740657374 L 561 313.0028912551272 L 562 313.906360501389 L 563 314.84651886968663 L 564 315.8229748041108 L 565 316.83532163159043 L 566 317.88313773126254 L 567 318.9659867100688 L 568 320.0834175845042 L 569 321.2349649684413 L 570 322.4201492669545 L 571 323.6384768760604 L 572 324.8894403882935 L 573 326.17251880403103 L 574 327.48717774847756 L 575 328.83286969422124 L 576 330.20903418926684 L 577 331.615098090452 L 578 333.0504758021502 L 579 334.51456952015695 L 580 336.0067694806646 L 581 337.52645421421425 L 582 339.0729908045254 L 583 340.64573515209196 L 584 342.2440322424359 L 585 343.86721641890654 L 586 345.51461165991304 L 587 347.1855318604721 L 588 348.87928111795696 L 589 350.5951540219251 L 590 352.3324359479072 L 591 354.0904033550332 L 592 355.86832408737064 L 593 357.6654576788535 L 594 359.4810556616691 L 595 361.3143618779795 L 596 363.16461279484577 L 597 365.03103782222206 L 598 366.91285963389043 L 599 368.8092944912012 L 600 370.71955256948206 L 601 372.6428382869848 L 602 374.5783506362268 L 603 376.5252835175939 L 604 378.4828260750646 L 605 380.4501630339129 L 606 382.426475040254 L 607 384.41093900228685 L 608 386.4027284330947 L 609 388.4010137948599 L 610 390.40496284434727 L 611 392.4137409795172 L 612 394.4265115871184 L 613 396.44243639112 L 614 398.46067580183603 L 615 400.48038926559576 L 616 402.50073561481673 L 617 404.5208734183337 L 618 406.5399613318356 L 619 408.557158448269 L 620 410.5716246480563 L 621 412.58252094898864 L 622 414.58900985564446 L 623 416.59025570818704 L 624 418.5854250304007 L 625 420.5736868768146 L 626 422.554213178774 L 627 424.52617908931416 L 628 426.4887633266901 L 629 428.4411485164242 L 630 430.38252153172436 L 631 432.312073832134 L 632 434.22900180027284 L 633 436.13250707652526 L 634 438.0217968915405 L 635 439.8960843964047 L 636 441.75458899034567 L 637 443.59653664583743 L 638 445.42116023096554 L 639 447.22769982892123 L 640 449.0154030544911 L 641 450.78352536740874 L 642 452.5313303824407 L 643 454.2580901760742 L 644 455.96308558968263 L 645 457.6456065290397 L 646 459.304952260058 L 647 460.94043170063 L 648 462.5513637084497 L 649 464.1370773646927 L 650 465.69691225344064 L 651 467.2302187367297 L 652 468.7363582251109 L 653 470.2147034436098 L 654 471.66463869297206 L 655 473.08556010608993 L 656 474.47687589949953 L 657 475.8380066198459 L 658 477.1683853852138 L 659 478.46745812122094 L 660 479.7346837917788 L 661 480.9695346244223 L 662 482.17149633011576 L 663 483.3400683174438 L 664 484.47476390109625 L 665 485.5751105045627 L 666 486.6406498569506 L 667 487.6709381838446 L 668 488.6655463921304 L 669 489.6240602487016 L 670 490.54608055297945 L 671 491.4312233031718 L 672 492.2791198562009 L 673 493.0894170812361 L 674 493.8617775067646 L 675 494.59587946114175 L 676 495.29141720656 L 677 495.9481010663826 L 678 496.5656575457873 L 679 497.14382944567126 L 680 497.6823759697692 L 681 498.18107282493975 L 682 498.6397123145785 L 683 499.0581034251197 L 684 499.4360719055892 L 685 499.77346034017575 L 686 500.07012821379215 L 687 500.3259519705962 L 688 500.5408250654492 L 689 500.7146580082899 L 690 500.8473784014051 L 691 500.93893096958146 L 692 500.9892775831271 L 693 500.9983972737511 L 694 500.96628624329696 L 695 500.8929578653239 L 696 500.77844267953753 L 697 500.62278837907036 L 698 500.4260597906188 L 699 500.1883388474443 L 700 499.90972455524957 L 701 499.5903329509453 L 702 499.2302970543228 L 703 498.8297668126544 L 704 498.3889090382433 L 705 497.90790733895034 L 706 497.3869620417247 L 707 496.8262901091721 L 708 496.2261250491949 L 709 495.58671681774035 L 710 494.9083317147001 L 711 494.1912522730013 L 712 493.4357771409377 L 713 492.6422209577897 L 714 491.8109142227829 L 715 490.94220315744275 L 716 490.03644956140056 L 717 489.0940306617116 L 718 488.11533895574826 L 719 487.100782047733 L 720 486.05078247898 L 721 484.965777551916 L 722 483.8462191479524 L 723 482.6925735392873 L 724 481.5053211947124 L 725 480.28495657950793 L 726 479.031987949509 L 727 477.7469371394272 L 728 476.43033934551806 L 729 475.0827429026832 L 730 473.7047090561 L 731 472.2968117274756 L 732 470.85963727602063 L 733 469.3937842542427 L 734 467.89986315866247 L 735 466.3784961755546 L 736 464.8303169218206 L 737 463.2559701811012 L 738 461.6561116352366 L 739 460.03140759119066 L 740 458.38253470354647 L 741 456.7101796926956 L 742 455.01503905883317 L 743 453.2978187918797 L 744 451.55923407745263 L 745 449.800008999006 L 746 448.0208762362649 L 747 446.2225767600808 L 748 444.40585952383213 L 749 442.57148115150187 L 750 440.7202056225596 L 751 438.85280395377976 L 752 436.9700538781308 L 753 435.0727395208645 L 754 433.161651072946 L 755 431.23758446195524 L 756 429.30134102059986 L 757 427.3537271529784 L 758 425.3955539987287 L 759 423.42763709520665 L 760 421.45079603783216 L 761 419.4658541387442 L 762 417.4736380839101 L 763 415.4749775888279 L 764 413.47070505296716 L 765 411.4616552130932 L 766 409.4486647956161 L 767 407.43257216811287 L 768 405.41421699016485 L 769 403.3944398636569 L 770 401.3740819826858 L 771 399.35398478321946 L 772 397.33498959265813 L 773 395.3179372794387 L 774 393.3036679028306 L 775 391.29302036307035 L 776 389.2868320519758 L 777 387.2859385041918 L 778 385.2911730492071 L 779 383.3033664642901 L 780 381.3233466284886 L 781 379.3519381778356 L 782 377.3899621619053 L 783 375.43823570186464 L 784 373.49757165015853 L 785 371.56877825197535 L 786 369.65265880862853 L 787 367.75001134300106 L 788 365.8616282671833 L 789 363.9882960524515 L 790 362.1307949017204 L 791 360.289898424603 L 792 358.4663733152204 L 793 356.6609790328892 L 794 354.874467485824 L 795 353.1075827179822 L 796 351.361060599186 L 797 349.6356285186495 L 798 347.932005082035 L 799 346.25089981216945 L 800 344.5930128535446 L 801 342.9590346807199 L 802 341.3496458107555 L 803 339.7655165197919 L 804 338.2073065638931 L 805 336.6756649042731 L 806 335.1712294370168 L 807 333.694626727411 L 808 332.2464717489917 L 809 330.82736762742184 L 810 329.43790538930244 L 811 328.0786637160218 L 812 326.75020870274744 L 813 325.45309362266016 L 814 324.1878586965265 L 815 322.9550308677089 L 816 321.75512358270464 L 817 320.58863657730745 L 818 319.4560556684766 L 819 318.3578525520054 L 820 317.29448460607017 L 821 316.26639470074144 L 822 315.27401101353786 L 823 314.3177468511006 L 824 313.39800047705836 L 825 312.5151549461599 L 826 311.66957794474035 L 827 310.86162163758655 L 828 310.09162252126873 L 829 309.3599012839967 L 830 308.66676267206014 L 831 308.01249536290794 L 832 307.3973718449204 L 833 306.8216483039239 L 834 306.28556451649445 L 835 305.78934375009607 L 836 305.33319267009506 L 837 304.91730125368764 L 838 304.54184271077867 L 839 304.2069734118438 L 840 303.91283282280415 L 841 303.6595434469417 L 842 303.44721077387953 L 843 303.27592323564744 L 844 303.1457521698519 L 845 303.0567517899657 L 846 303.00895916274885 L 847 303.00239419281127 L 848 303.03705961432297 L 849 303.11294098987526 L 850 303.23000671649345 L 851 303.38820803879923 L 852 303.5874790693158 L 853 303.827736815909 L 854 304.1088812163514 L 855 304.4307951799964 L 856 304.7933446365436 L 857 305.19637859187674 L 858 305.6397291909492 L 859 306.12321178769173 L 860 306.64662502191453 L 861 307.2097509031686 L 862 307.81235490153426 L 863 308.45418604529834 L 864 309.1349770254781 L 865 309.85444430715 L 866 310.6122882475354 L 867 311.4081932207961 L 868 312.2418277494855 L 869 313.11284464260154 L 870 314.02088114018494 L 871 314.96555906440074 L 872 315.94648497704077 L 873 316.96325034338327 L 874 318.0154317023384 L 875 319.1025908428101 L 876 320.224274986203 L 877 321.38001697499396 L 878 322.5693354672941 L 879 323.7917351373159 L 880 325.0467068816679 L 881 326.33372803138406 L 882 327.6522625696041 L 883 329.001761354814 L 884 330.38166234955133 L 885 331.7913908544813 L 886 333.2303597477476 L 887 334.6979697294962 L 888 336.1936095714695 L 889 337.7166563715718 L 890 339.26647581329365 L 891 340.84242242989154 L 892 342.4438398732101 L 893 344.07006118703873 L 894 345.7204090848836 L 895 347.39419623204253 L 896 349.0907255318666 L 897 350.8092904160855 L 898 352.54917513907697 L 899 354.30965507596153 L 900 356.0899970243924 L 901 357.8894595099177 L 902 359.7072930947904 L 903 361.5427406900923 L 904 363.39503787104564 L 905 365.2634131953789 L 906 367.14708852461746 L 907 369.0452793481611 L 908 370.9571951100147 L 909 372.88203953804026 L 910 374.81901097558585 L 911 376.76730271535774 L 912 378.7261033353989 L 913 380.6945970370272 L 914 382.6719639845995 L 915 384.65738064695347 L 916 386.6500201403936 L 917 388.6490525730693 L 918 390.6536453906059 L 919 392.6629637228482 L 920 394.67617073156475 L 921 396.6924279589725 L 922 398.71089567693815 L 923 400.7307332367064 L 924 402.751099419011 L 925 404.7711527844266 L 926 406.79005202380915 L 927 408.80695630868394 L 928 410.821025641431 L 929 412.83142120512866 L 930 414.8373057129017 L 931 416.8378437566323 L 932 418.83220215489206 L 933 420.8195502999431 L 934 422.7990605036675 L 935 424.7699083422836 L 936 426.73127299970025 L 937 428.68233760936795 L 938 430.62228959448834 L 939 432.55032100643393 L 940 434.465628861242 L 941 436.3674154740391 L 942 438.25488879126164 L 943 440.1272627205283 L 944 441.98375745802997 L 945 443.8235998133032 L 946 445.64602353124644 L 947 447.45026961124825 L 948 449.23558662329674 L 949 451.0012310209329 L 950 452.74646745092133 L 951 454.4705690595107 L 952 456.1728177951518 L 953 457.85250470755113 L 954 459.5089302429327 L 955 461.1414045353886 L 956 462.7492476941929 L 957 464.3317900869606 L 958 465.8883726185371 L 959 467.4183470054963 L 960 468.9210760461358 L 961 470.39593388586 L 962 471.8423062778337 L 963 473.25959083880326 L 964 474.6471972999757 L 965 476.0045477528543 L 966 477.3310768899246 L 967 478.626232240092 L 968 479.88947439877586 L 969 481.120277252559 L 970 482.3181281983023 L 971 483.48252835663436 L 972 484.61299277972296 L 973 485.7090506532456 L 974 486.7702454924742 L 975 487.7961353323909 L 976 488.7862929117572 L 977 489.74030585105845 L 978 490.6577768242523 L 979 491.53832372424597 L 980 492.3815798220351 L 981 493.1871939194397 L 982 493.95483049537006 L 983 494.6841698455637 L 984 495.3749082157364 L 985 496.02675792808884 L 986 496.6394475011179 L 987 497.2127217626836 L 988 497.7463419562826 L 989 498.24008584048505 L 990 498.6937477814933 L 991 499.1071388387845 L 992 499.4800868438 L 993 499.81243647164956 L 994 500.1040493058014 L 995 500.35480389572956 L 996 500.56459580749515 L 997 500.7333376672414 L 998 500.86095919758253 L 999 500.9474072468729 L 1000 500.9926458113438 L 1001 500.99665605009795 L 1002 500.95943629295635 L 1003 500.88100204115415 L 1004 500.76138596088435 L 1005 500.6006378696933 L 1006 500.39882471573264 L 1007 500.1560305498768 L 1008 499.87235649071766 L 1009 499.5479206824509 L 1010 499.1828582456712 L 1011 498.77732122109757 L 1012 498.3314785062517 L 1013 497.8455157851157 L 1014 497.31963545079844 L 1015 496.75405652124346 L 1016 496.1490145480127 L 1017 495.5047615181839 L 1018 494.82156574940353 L 1019 494.0997117781387 L 1020 493.3395002411731 L 1021 492.5412477503982 L 1022 491.70528676095205 L 1023 490.8319654327576 L 1024 489.9216474855224 L 1025 488.97471204725645 L 1026 487.99155349637437 L 1027 486.9725812974442 L 1028 485.91821983065444 L 1029 484.82890821506953 L 1030 483.70510012574493 L 1031 482.5472636047816 L 1032 481.35588086639723 L 1033 480.131448096093 L 1034 478.8744752440033 L 1035 477.5854858125135 L 1036 476.2650166382308 L 1037 474.91361766840384 L 1038 473.5318517318815 L 1039 472.1202943047072 L 1040 470.67953327044415 L 1041 469.210168675335 L 1042 467.71281247839636 L 1043 466.18808829654915 L 1044 464.63663114489634 L 1045 463.0590871722534 L 1046 461.4561133920397 L 1047 459.82837740864693 L 1048 458.1765571393973 L 1049 456.5013405322035 L 1050 454.8034252790543 L 1051 453.08351852544 L 1052 451.3423365758429 L 1053 449.5806045954097 L 1054 447.7990563079365 L 1055 445.99843369028986 L 1056 444.17948666338685 L 1057 442.3429727798704 L 1058 440.4896569086054 L 1059 438.62031091612533 L 1060 436.73571334516765 L 1061 434.8366490904266 L 1062 432.92390907166265 L 1063 430.99828990429944 L 1064 429.06059356765115 L 1065 427.1116270709166 L 1066 425.15220211707464 L 1067 423.18313476482876 L 1068 421.20524508873655 L 1069 419.2193568376643 L 1070 417.22629709171434 L 1071 415.2268959177646 L 1072 413.2219860237614 L 1073 411.21240241191606 L 1074 409.19898203094306 L 1075 407.1825634274907 L 1076 405.1639863969018 L 1077 403.1440916334581 L 1078 401.12372038025 L 1079 399.10371407881473 L 1080 397.08491401869475 L 1081 395.06816098705997 L 1082 393.0542949185354 L 1083 391.0441545453876 L 1084 389.0385770482114 L 1085 387.0383977072601 L 1086 385.0444495545705 L 1087 383.0575630270219 L 1088 381.07856562047846 L 1089 379.10828154515264 L 1090 377.1475313823402 L 1091 375.1971317426669 L 1092 373.2578949259851 L 1093 371.3306285830697 L 1094 369.41613537924934 L 1095 367.51521266011184 L 1096 365.62865211942744 L 1097 363.7572394694264 L 1098 361.9017541135647 L 1099 360.0629688219202 L 1100 358.2416494093498 L 1101 356.43855441654546 L 1102 354.6544347941158 L 1103 352.89003358983246 L 1104 351.14608563916744 L 1105 349.42331725924794 L 1106 347.7224459463615 L 1107 346.04418007713525 L 1108 344.38921861351025 L 1109 342.75825081164 L 1110 341.1519559348292 L 1111 339.57100297063636 L 1112 338.0160503522531 L 1113 336.4877456842815 L 1114 334.98672547302135 L 1115 333.51361486137745 L 1116 332.06902736850157 L 1117 330.6535646342755 L 1118 329.2678161687396 L 1119 327.912359106575 L 1120 326.5877579667401 L 1121 325.2945644173591 L 1122 324.0333170459645 L 1123 322.80454113518726 L 1124 321.60874844398785 L 1125 320.44643699451876 L 1126 319.3180908647093 L 1127 318.2241799866581 L 1128 317.1651599509154 L 1129 316.14147181673957 L 1130 315.1535419284063 L 1131 314.2017817376437 L 1132 313.2865876322726 L 1133 312.4083407711192 L 1134 311.56740692527035 L 1135 310.76413632573787 L 1136 309.99886351759454 L 1137 309.27190722064387 L 1138 308.5835701966793 L 1139 307.9341391233907 L 1140 307.32388447496953 L 1141 306.7530604094617 L 1142 306.22190466291596 L 1143 305.73063845037285 L 1144 305.2794663737323 L 1145 304.86857633654176 L 1146 304.49813946573875 L 1147 304.1683100403792 L 1148 303.87922542738454 L 1149 303.6310060243304 L 1150 303.42375520930455 L 1151 303.25755929785106 L 1152 303.1324875070227 L 1153 303.0485919265527 L 1154 303.0059074971612 L 1155 303.0044519960026 L 1156 303.0442260292622 L 1157 303.1252130319033 L 1158 303.2473792745665 L 1159 303.41067387761746 L 1160 303.6150288323365 L 1161 303.8603590292434 L 1162 304.1465622935434 L 1163 304.47351942768097 L 1164 304.8410942609828 L 1165 305.24913370637046 L 1166 305.6974678241172 L 1167 306.18590989262486 L 1168 306.71425648618924 L 1169 307.28228755972236 L 1170 307.8897665403967 L 1171 308.5364404261728 L 1172 309.22203989116946 L 1173 309.94627939783123 L 1174 310.7088573158499 L 1175 311.5094560477867 L 1176 312.34774216134423 L 1177 313.2233665282348 L 1178 314.13596446958474 L 1179 315.08515590781445 L 1180 316.070545524934 L 1181 317.09172292718387 L 1182 318.1482628159548 L 1183 319.23972516491676 L 1184 320.36565540327933 L 1185 321.5255846051119 L 1186 322.71902968463974 L 1187 323.94549359744065 L 1188 325.2044655474525 L 1189 326.4954211997084 L 1190 327.8178228987123 L 1191 329.17111989236025 L 1192 330.5547485613163 L 1193 331.9681326537494 L 1194 333.41068352532926 L 1195 334.8818003843833 L 1196 336.3808705421152 L 1197 337.90726966777567 L 1198 339.46036204868335 L 1199 341.0395008549846 L 1200 342.644028409046 L 1201 344.273276459362 L 1202 345.9265664588669 L 1203 347.6032098475366 L 1204 349.3025083391587 L 1205 351.02375421215254 L 1206 352.76623060432223 L 1207 354.5292118114129 L 1208 356.3119635893522 L 1209 358.11374346004555 L 1210 359.93380102060456 L 1211 361.77137825587283 L 1212 363.625709854122 L 1213 365.4960235257901 L 1214 367.3815403251222 L 1215 369.2814749745841 L 1216 371.1950361919154 L 1217 373.1214270196808 L 1218 375.059845157185 L 1219 377.0094832946157 L 1220 378.9695294492694 L 1221 380.9391673037259 L 1222 382.9175765458256 L 1223 384.903933210314 L 1224 386.8974100220046 L 1225 388.89717674032045 L 1226 390.90240050507384 L 1227 392.91224618333337 L 1228 394.9258767172383 L 1229 396.9424534726173 L 1230 398.9611365882605 L 1231 400.98108532570313 L 1232 403.0014584193767 L 1233 405.0214144269772 L 1234 407.04011207990834 L 1235 409.0567106336507 L 1236 411.0703702179161 L 1237 413.0802521864341 L 1238 415.08551946623004 L 1239 417.08533690624944 L 1240 419.07887162517994 L 1241 421.0652933583275 L 1242 423.043774803406 L 1243 425.0134919650898 L 1244 426.9736244981897 L 1245 428.92335604931054 L 1246 430.86187459684413 L 1247 432.78837278915955 L 1248 434.7020482808464 L 1249 436.60210406687645 L 1250 438.4877488145387 L 1251 440.35819719301105 L 1252 442.21267020043626 L 1253 444.05039548835816 L 1254 445.8706076833878 L 1255 447.6725487059668 L 1256 449.45546808609015 L 1257 451.2186232758615 L 1258 452.9612799587473 L 1259 454.68271235540595 L 1260 456.38220352595835 L 1261 458.05904566857726 L 1262 459.71254041427335 L 1263 461.3419991177502 L 1264 462.9467431442095 L 1265 464.5261041519897 L 1266 466.0794243709151 L 1267 467.60605687624235 L 1268 469.10536585809245 L 1269 470.5767268862511 L 1270 472.0195271702305 L 1271 473.43316581448335 L 1272 474.8170540686639 L 1273 476.1706155728293 L 1274 477.4932865974807 L 1275 478.78451627834573 L 1276 480.0437668458013 L 1277 481.27051384884226 L 1278 482.46424637350543 L 1279 483.6244672556538 L 1280 484.7506932880342 L 1281 485.8424554215238 L 1282 486.8992989604787 L 1283 487.9207837521048 L 1284 488.9064843697717 L 1285 489.8559902901949 L 1286 490.76890606440924 L 1287 491.6448514824646 L 1288 492.48346173177634 L 1289 493.2843875490611 L 1290 494.0472953657975 L 1291 494.7718674471508 L 1292 495.4578020243026 L 1293 496.1048134201306 L 1294 496.7126321681876 L 1295 497.2810051249283 L 1296 497.8096955751382 L 1297 498.2984833305204 L 1298 498.74716482139934 L 1299 499.1555531815035 L 1300 499.5234783257905 L 1301 499.8507870212849 L 1302 500.1373429508956 L 1303 500.38302677018936 L 1304 500.5877361570954 L 1305 500.7513858545199 L 1306 500.87390770585426 L 1307 500.95525068336036 L 1308 500.995380909423 L 1309 500.9942816706588 L 1310 500.9519534248772 L 1311 500.86841380089004 L 1312 500.7436975911689 L 1313 500.5778567373552 L 1314 500.3709603086277 L 1315 500.1230944729362 L 1316 499.8343624611151 L 1317 499.50488452388936 L 1318 499.13479788179285 L 1319 498.72425666801894 L 1320 498.27343186422746 L 1321 497.78251122933426 L 1322 497.25169922131346 L 1323 496.6812169120458 L 1324 496.071301895246 L 1325 495.4222081875105 L 1326 494.7342061225253 L 1327 494.0075822384769 L 1328 493.2426391587159 L 1329 492.439695465721 L 1330 491.5990855684154 L 1331 490.72115956289326 L 1332 489.8062830866117 L 1333 488.85483716611145 L 1334 487.86721805832633 L 1335 486.84383708555106 L 1336 485.78512046413505 L 1337 484.69150912697125 L 1338 483.56345853985727 L 1339 482.4014385118047 L 1340 481.205932999372 L 1341 479.97743990510776 L 1342 478.71647087018556 L 1343 477.4235510613149 L 1344 476.09921895202143 L 1345 474.7440260983838 L 1346 473.3585369093232 L 1347 471.94332841153766 L 1348 470.49899000918333 L 1349 469.0261232384012 L 1350 467.5253415167886 L 1351 465.9972698879244 L 1352 464.44254476105266 L 1353 462.86181364603 L 1354 461.25573488365285 L 1355 459.6249773714719 L 1356 457.97022028521155 L 1357 456.29215279590613 L 1358 454.5914737828757 L 1359 452.8688915426586 L 1360 451.12512349401925 L 1361 449.36089587915944 L 1362 447.57694346125476 L 1363 445.7740092184398 L 1364 443.9528440343744 L 1365 442.1142063855174 L 1366 440.2588620252357 L 1367 438.38758366488565 L 1368 436.5011506519943 L 1369 434.60034864567933 L 1370 432.6859692894367 L 1371 430.758809881439 L 1372 428.81967304247905 L 1373 426.8693663816929 L 1374 424.9087021602093 L 1375 422.93849695286127 L 1376 420.9595713080977 L 1377 418.97274940624385 L 1378 416.9788587162486 L 1379 414.9787296510594 L 1380 412.973195221774 L 1381 410.96309069070907 L 1382 408.94925322353197 L 1383 406.93252154059724 L 1384 404.9137355676388 L 1385 402.89373608595946 L 1386 400.8733643822614 L 1387 398.85346189826953 L 1388 396.8348698802896 L 1389 394.81842902884534 L 1390 392.80497914854544 L 1391 390.79535879832383 L 1392 388.790404942196 L 1393 386.7909526006824 L 1394 384.7978345030396 L 1395 382.8118807404478 L 1396 380.83391842029334 L 1397 378.86477132169733 L 1398 376.9052595524301 L 1399 374.9561992073517 L 1400 373.0184020285269 L 1401 371.0926750671532 L 1402 369.17982034743864 L 1403 367.28063453257766 L 1404 365.395908592957 L 1405 363.5264274767347 L 1406 361.67296978292393 L 1407 359.8363074371244 L 1408 358.0172053700323 L 1409 356.21642119886144 L 1410 354.43470491181256 L 1411 352.67279855572036 L 1412 350.9314359270048 L 1413 349.2113422660616 L 1414 347.51323395521587 L 1415 345.8378182203624 L 1416 344.1857928364223 L 1417 342.55784583673426 L 1418 340.95465522650414 L 1419 339.3768887004289 L 1420 337.8252033646164 L 1421 336.3002454629162 L 1422 334.80265010777055 L 1423 333.33304101570457 L 1424 331.8920302475627 L 1425 330.4802179535963 L 1426 329.0981921235154 L 1427 327.7465283416034 L 1428 326.42578954699775 L 1429 325.13652579923826 L 1430 323.87927404917906 L 1431 322.6545579153604 L 1432 321.46288746593166 L 1433 320.30475900621946 L 1434 319.18065487202784 L 1435 318.0910432287541 L 1436 317.03637787640884 L 1437 316.0170980606183 L 1438 315.0336282896869 L 1439 314.0863781577991 L 1440 313.17574217443286 L 1441 312.30209960005334 L 1442 311.4658142881603 L 1443 310.66723453375005 L 1444 309.9066929282589 L 1445 309.18450622104507 L 1446 308.5009751874694 L 1447 307.8563845036298 L 1448 307.2510026277983 L 1449 306.68508168861496 L 1450 306.1588573800814 L 1451 305.672548863399 L 1452 305.22635867569323 L 1453 304.82047264566114 L 1454 304.45505981617777 L 1455 304.1302723738932 L 1456 303.8462455858502 L 1457 303.6030977431486 L 1458 303.40093011167903 L 1459 303.23982688994823 L 1460 303.1198551740122 L 1461 303.0410649295319 L 1462 303.00348897096376 L 1463 303.00714294789316 L 1464 303.0520253385166 L 1465 303.1381174502757 L 1466 303.26538342764184 L 1467 303.4337702670499 L 1468 303.64320783897244 L 1469 303.8936089171276 L 1470 304.18486921480667 L 1471 304.5168674283076 L 1472 304.8894652874551 L 1473 305.30250761318734 L 1474 305.75582238218493 L 1475 306.24922079851467 L 1476 306.7824973722589 L 1477 307.35543000509824 L 1478 307.96778008281035 L 1479 308.6192925746478 L 1480 309.3096961395526 L 1481 310.03870323916476 L 1482 310.80601025757517 L 1483 311.6112976277753 L 1484 312.45422996475014 L 1485 313.3344562051593 L 1486 314.25160975354623 L 1487 315.2053086350188 L 1488 316.19515565433306 L 1489 317.220738561316 L 1490 318.2816302225602 L 1491 319.3773887993148 L 1492 320.5075579315027 L 1493 321.6716669277835 L 1494 322.86923096158796 L 1495 324.0997512730373 L 1496 325.36271537666516 L 1497 326.6575972748586 L 1498 327.98385767692366 L 1499 329.34094422368827 L 1500 330.7282917175492 L 1501 332.14532235786385 L 1502 333.59144598159247 L 1503 335.06606030908745 L 1504 336.5685511949315 L 1505 338.0982928837152 L 1506 339.65464827065017 L 1507 341.2369691669112 L 1508 342.8445965695922 L 1509 344.476860936166 L 1510 346.13308246333634 L 1511 347.8125713701604 L 1512 349.51462818532724 L 1513 351.2385440384742 L 1514 352.98360095541517 L 1515 354.74907215716223 L 1516 356.53422236261235 L 1517 358.33830809477803 L 1518 360.1605779904287 L 1519 362.00027311301653 L 1520 363.8566272687595 L 1521 365.72886732574335 L 1522 367.61621353591386 L 1523 369.5178798598271 L 1524 371.43307429401733 L 1525 373.36099920084825 L 1526 375.30085164071437 L 1527 377.25182370644654 L 1528 379.2131028597891 L 1529 381.1838722698031 L 1530 383.1633111530612 L 1531 385.1505951154853 L 1532 387.14489649568816 L 1533 389.1453847096786 L 1534 391.15122659678127 L 1535 393.161586766629 L 1536 395.1756279470874 L 1537 397.1925113329595 L 1538 399.2113969353295 L 1539 401.231443931402" stroke-linecap="round" stroke-linejoin="round" stroke-miterlimit="10" stroke-width="40"/></g></svg>